<?xml version="1.0" encoding="UTF-8"?>
<svg width="24" height="24" version="1.1" viewBox="-10 0 24 24" xml:space="preserve" xmlns="http://www.w3.org/2000/svg"><ellipse cx="-20.799" cy="8.2081" rx="4.1865" ry="3.8448" fill="none"/><path transform="matrix(.33214 0 0 .33214 -20.203 -.99928)" d="m59.508 4.514c-2.0618 0.043656-3.8316 1.5677-4.1868 3.5988l-0.99379 7.0859-3.2636 1.9052-6.6331-2.6521c-1.9421-0.73844-4.1738 0.035984-5.2336 1.8229l-6.3979 11.073c-1.0386 1.7916-0.63414 4.1085 0.94674 5.4452h0.00588v0.00588s3.7009 2.9034 5.6569 4.4397v3.7987c-1.9561 1.5362-5.6569 4.4397-5.6569 4.4397v0.005881h-0.00588c-1.5809 1.3368-1.9854 3.6535-0.94674 5.4452l6.3979 11.073c1.0599 1.7869 3.2916 2.5614 5.2336 1.8229l6.6331-2.6521 3.2636 1.9052 0.99379 7.0859c0.355 2.031 2.1252 3.5551 4.1868 3.5988h14.677c2.0618-0.043656 3.8316-1.5676 4.1868-3.5988l0.39987-2.8167a2.7423 2.7423 0 0 0-0.78209-2.3228l-2.1934-2.1934c-0.83921-0.83921-1.7365-0.57699-1.9288 0.59392-0.26993 1.6436-0.44761 3.3065-0.68213 4.9513h-12.678l-0.87618-6.1862c-0.243-1.7451-1.1392-2.5401-2.6285-3.54l-3.0402-1.9876c-1.4832-0.89891-3.1161-0.95379-4.7572-0.55276l-5.8392 2.3404-5.4394-9.3969 4.916-3.8634c1.3509-1.0592 1.9523-2.7245 1.9523-4.4044v-3.293c0-1.6799-0.60143-3.3452-1.9523-4.4044l-4.916-3.8634 5.4394-9.3969 5.8392 2.3404c1.654 0.49903 3.2516 0.24015 4.7572-0.55276l3.0402-1.9876c1.4892-0.99969 2.3855-1.7947 2.6285-3.54l0.87618-6.1862h12.678l0.88206 6.1862c0.24008 1.7242 1.1244 2.5302 2.6285 3.54l3.0343 1.9876c1.4848 0.89916 3.1202 0.954 4.7631 0.55276l5.8334-2.3404 5.4394 9.3969-4.9101 3.8634c-1.3509 1.0592-1.9523 2.7244-1.9523 4.4044v3.293c0 1.6799 0.60143 3.3452 1.9523 4.4044l4.9101 3.8634-1.0055 1.7406a1.3235 1.3235 0 0 0 0.20581 1.5995l2.3874 2.3874a0.90352 0.90352 0 0 0 1.4231-0.18817l1.3995-2.4227c0.39572-0.68477 1.0699-1.8024 1.2172-2.5756 0.28485-1.4944-0.23856-3.0889-1.4466-4.1104l-0.00588-0.005881s-3.6932-2.8963-5.6511-4.4338v-3.8105c1.9578-1.5376 5.6511-4.4338 5.6511-4.4338l0.00588-0.00588c1.5809-1.3367 1.9854-3.6539 0.94675-5.4452l-6.3979-11.073c-1.0599-1.7869-3.2916-2.5614-5.2336-1.8229l-6.6272 2.6521-3.2695-1.9052-0.99379-7.0859c-0.355-2.0311-2.1249-3.5551-4.1868-3.5988h-14.677zm7.4387 21.934c-0.48637-0.002439-0.96788 0.023773-1.4525 0.076445-1.5706 0.17072-1.8899 1.5269-0.77033 2.6462l6.2861 6.2803a1.3348 1.3348 0 0 1 0 1.8876l-5.6922 5.6922a1.6174 1.6174 0 0 1-2.2875 0l-5.9686-5.9686c-1.2046-1.2046-2.6841-0.86836-2.8461 0.82326-0.3429 3.5802 0.83872 7.2778 3.5694 10.008 3.564 3.566 8.851 4.4065 13.078 2.9755l22.175 22.169c1.221 1.22 3.1668 0.77997 4.3868-0.44103l2.9461-2.9461c1.22-1.221 1.661-3.1658 0.44103-4.3868l-22.169-22.175c1.432-4.225 0.56011-9.4895-3.0049-13.054-2.3877-2.3884-5.5306-3.5712-8.6912-3.587z"/></svg>
